<svg id="svg8" xmlns="http://www.w3.org/2000/svg" viewBox="0 0 499.09 140.26"><defs><style>.cls-1{fill:#f58113;fill-rule:evenodd;}</style></defs><title>logo</title><g id="layer1"><g id="g10"><g id="g12"><path id="path14" class="cls-1" d="M499.59,27.4A13.4,13.4,0,1,1,486.42,14,13.26,13.26,0,0,1,499.59,27.4Zm-23.45-.2c-.06,5.94,4.28,10.69,10.09,10.73,5.64.13,10-4.62,10-10.48s-4.2-10.75-10-10.81-10.05,4.71-10.1,10.56Zm8,7-3,0,.1-13.33a35.17,35.17,0,0,1,5-.35c2.46,0,3.57.43,4.44,1.08a3.37,3.37,0,0,1-1.4,6v.18c1.26.4,1.89,1.47,2.28,3.26a11.74,11.74,0,0,0,.93,3.26l-3.18,0a10.25,10.25,0,0,1-1-3.26c-.23-1.38-1-2-2.69-2.05h-1.43Zm.14-7.47,1.43,0c1.67,0,3-.55,3-1.93,0-1.22-.85-2-2.76-2.05a7.56,7.56,0,0,0-1.67.14l0,3.82" transform="translate(-0.5 -0.5)"/><path id="path16" class="cls-1" d="M81.58,112.81c-19.79,7.82-47,6.91-63.45-8.27-17.41-16.05-20.86-41.95-15-65C6.51,26.44,15.91,13.36,28.3,6.8c16-8.47,38.33-8.51,56.19.53,7.08,3.58,14,11.43,17.86,19.11,2.13,4.27,4.52,11.92.44,15.22-7.28,5.89-21.39,4.41-25.65.58C69.12,35,61.78,23.13,49.36,29c-9.53,4.46-13.88,16.09-14,26.87-.12,12.44,0,26,11.73,32.48,5.79,3.19,15.53,3.09,20.49-1.92,4.48-4.52,8.3-12.53,14-13.29,2.45-.32,24.6-2.91,24.16,5.76-.72,14.47-11.73,27.91-24.16,34" transform="translate(-0.5 -0.5)"/><path id="path18" class="cls-1" d="M188.54,112.37c-6,1.92-12.64,2.35-17.81-.74-7-4.19-5.41-13.62-5.23-21,.31-12.11,3.54-27.46-8.05-33.81-3.67-1.62-8.51.12-10.32,1.78a18.77,18.77,0,0,0-4.8,9c-1.84,13.88,1.3,34.26-4.4,41.94-3.38,4.56-16.52,4.22-20.63,1.86-7.56-4.32-6.25-16.07-6.34-24.16-.23-20.62-.9-51.81,1.38-77.69.78-8.92,20.17-12.83,27.42-2.18,1.57,2.31,1.59,11.63,1.74,14.31.69,11.86,5.58,12.49,7.89,12,12.53-4.35,29.44-7.41,38.3,4.88,11.15,15.45,7.36,61.05,6.78,64.16-1.07,5.88-3.77,9-5.93,9.66" transform="translate(-0.5 -0.5)"/><path id="path20" class="cls-1" d="M377.45,115.76c-1.08,8.66-6.93,18.18-15.4,21-17.07,5.62-40.81,6.51-55.25-4.87a14.51,14.51,0,0,1-3.11-3c-2.08-2.79-2.11-6.7,0-8.41,5.39-4.39,16.46-5.29,25.83-1.18,8.28,3.63,15,1.35,17.41-3.55,1.8-3.69-.29-9-8.62-7.69-9.42,1.47-24.13,4-35.75-10.62-5.48-6.86-7.93-14.93-8.34-23.62-.66-13.88,2.33-26.29,11.87-35.73,11.63-11.49,30.67-7.38,43.67-2.8,7.63-2.36,26-7.83,29,5.9.2.9,1.72,50.74-1.27,74.56ZM344.39,57.45a10.67,10.67,0,0,0-14.56-.6,17.08,17.08,0,0,0-5.14,12.44c-.13,6.08,1.58,11.4,5.71,14.43a10.29,10.29,0,0,0,11.3.74c4.69-2.77,7.18-8.7,7.49-14a17.64,17.64,0,0,0-4.8-13" transform="translate(-0.5 -0.5)"/><path id="path22" class="cls-1" d="M467.71,115.76c-1.08,8.66-6.92,18.18-15.4,21-17.07,5.62-40.81,6.51-55.25-4.87a14.51,14.51,0,0,1-3.11-3c-2.07-2.79-2.11-6.7,0-8.41,5.39-4.39,16.46-5.29,25.83-1.18,8.28,3.63,15,1.35,17.41-3.55,1.8-3.69-.29-9-8.62-7.69-9.43,1.47-24.13,4-35.75-10.62-5.48-6.86-7.93-14.93-8.34-23.62C383.82,60,386.8,47.54,396.35,38.1,408,26.61,427,30.72,440,35.3c7.63-2.36,26-7.83,29,5.9.19.9,1.72,50.74-1.28,74.56ZM434.65,57.45a10.66,10.66,0,0,0-14.56-.6A17.08,17.08,0,0,0,415,69.29c-.12,6.08,1.58,11.4,5.71,14.43a10.29,10.29,0,0,0,11.3.74c4.69-2.77,7.18-8.7,7.49-14a17.64,17.64,0,0,0-4.8-13" transform="translate(-0.5 -0.5)"/><path id="path24" class="cls-1" d="M240,80.48a6.29,6.29,0,0,0-3.53,9.15c3,4.87,9.31,6.49,14.83,4.58,8.86-3.07,16.4-10.84,28.12-5.17,3.7,1.79,4.51,6.93,2.55,9.89-11.73,17.67-35.45,18.43-54.13,13.73-13-3.27-23.66-16.61-25.86-30.27-2.74-17,1.76-33.6,15.55-43.84,18.41-13.68,49-11.48,63.87,8.41,5.47,7.34,10.51,24.6,5.51,30.12-10.11,11.18-30.77-1-46.91,3.4Zm-2.4-26.28c-1.19,1.86-.89,5.9,1.79,7.41,4.65,2.62,10.73,1.89,13.89-1.32,1.88-1.91.73-4.93-.22-6.43-2.81-4.45-12.37-4.55-15.46.34" transform="translate(-0.5 -0.5)"/></g></g></g></svg>